M48
;GenerationSoftware,Autodesk,EAGLE,9.0.1*%
;CreationDate,2018-05-20T20:43:21Z*%
FMAT,2
ICI,OFF
METRIC,TZ,000.000
T7C0.350
T6C0.700
T5C0.850
T4C1.016
T3C1.600
T2C2.200
%
G90
M71
T2
X7384Y42097
X7384Y52697
T3
X10484Y41747
X10484Y53047
X4184Y41747
X4184Y53047
X16784Y41747
X16784Y53047
T4
X7620Y29590
X19212Y37437
X16672Y37437
X14132Y37437
X11592Y37437
X34850Y16440
X34850Y21520
X34840Y5263
X34840Y8057
X7820Y11680
X34930Y34603
X34930Y37397
X34850Y29140
X34850Y26600
X34850Y24060
X34850Y18980
T5
X4330Y18670
X4330Y14870
T6
X24155Y42726
X26885Y54606
X24345Y54606
X26695Y42726
X30560Y9740
X30560Y12280
X26889Y16438
X27414Y33945
X24349Y16438
X27414Y31405
X15785Y12386
X13245Y12386
T7
X12370Y30970
X18030Y23150
X11060Y28380
X29190Y26190
X12210Y20490
X14130Y21450
X10620Y34790
X18470Y32070
X19470Y23250
X7180Y18850
X15960Y27460
X12920Y22480
X4730Y25030
X15860Y25530
X24310Y22960
X16810Y24840
X24290Y21520
X17170Y23870
X30210Y24310
X17980Y28810
X19440Y31500
X23460Y36230
X30340Y36300
X24630Y26710
X25560Y26110
X6490Y14510
M30